<?xml version="1.0" encoding="UTF-8"?>
<svg id="Layer_2" data-name="Layer 2" xmlns="http://www.w3.org/2000/svg" viewBox="0 0 600 600">
  <defs>
    <style>
      .cls-1 {
        fill: #1f3835;
      }

      .cls-2 {
        fill: #f5e768;
      }

      .cls-3 {
        fill: #dfd9b4;
      }

      .cls-4 {
        fill: #437063;
      }

      .cls-5 {
        fill: #102320;
      }

      .cls-6 {
        fill: #00130e;
      }
    </style>
  </defs>
  <g id="text">
    <g>
      <path class="cls-6" d="M300,591c-160.46,0-291-130.54-291-291S139.54,9,300,9s291,130.54,291,291-130.54,291-291,291Z"/>
      <path class="cls-5" d="M300,80.34c-121.31,0-219.66,98.34-219.66,219.66s98.34,219.66,219.66,219.66,219.66-98.34,219.66-219.66-98.34-219.66-219.66-219.66ZM300,392c-50.81,0-92-41.19-92-92s41.19-92,92-92,92,41.19,92,92-41.19,92-92,92Z"/>
      <path class="cls-1" d="M552.62,442.15l-57.96-33.46c18.4-32.84,28.2-70.01,28.2-108.69,0-59.53-23.18-115.49-65.27-157.58-13.19-13.19-27.75-24.53-43.35-33.87l33.46-57.96c.88-1.53.36-3.49-1.17-4.37-1.53-.88-3.49-.36-4.37,1.17l-33.46,57.96c-32.84-18.4-70.01-28.2-108.69-28.2s-75.85,9.8-108.69,28.2l-33.46-57.96c-.88-1.53-2.84-2.05-4.37-1.17-1.53.88-2.05,2.84-1.17,4.37l33.46,57.96c-15.6,9.35-30.16,20.68-43.35,33.87-13.19,13.19-24.53,27.75-33.87,43.35l-57.96-33.46c-1.53-.88-3.49-.36-4.37,1.17-.88,1.53-.36,3.49,1.17,4.37l57.96,33.46c-18.4,32.84-28.2,70.01-28.2,108.69,0,59.53,23.18,115.49,65.27,157.58,13.19,13.19,27.75,24.53,43.35,33.87l-33.46,57.96c-.88,1.53-.36,3.49,1.17,4.37.5.29,1.05.43,1.6.43,1.1,0,2.18-.57,2.77-1.6l33.46-57.96c32.84,18.4,70.01,28.2,108.69,28.2s75.85-9.8,108.69-28.2l33.46,57.96c.59,1.03,1.67,1.6,2.77,1.6.54,0,1.09-.14,1.6-.43,1.53-.88,2.05-2.84,1.17-4.37l-33.46-57.96c15.6-9.35,30.16-20.68,43.35-33.87,13.19-13.19,24.53-27.75,33.87-43.35l57.96,33.46c.5.29,1.05.43,1.6.43,1.1,0,2.18-.57,2.77-1.6.88-1.53.36-3.49-1.17-4.37ZM453.06,453.06c-13.46,13.46-28.39,24.92-44.41,34.25-.14.06-.27.11-.4.18-.14.08-.27.18-.39.28-32.46,18.71-69.39,28.69-107.86,28.69s-75.41-9.98-107.88-28.7c-.12-.09-.24-.19-.37-.27-.12-.07-.25-.12-.38-.17-16.03-9.33-30.96-20.79-44.43-34.26-40.88-40.88-63.4-95.24-63.4-153.06,0-38.52,10-75.49,28.76-107.97.07-.09.15-.17.21-.27.07-.13.12-.26.18-.39,9.33-16.03,20.79-30.96,34.25-44.42,13.45-13.45,28.36-24.89,44.36-34.22.15-.06.31-.13.45-.21.14-.08.26-.18.38-.27,32.46-18.72,69.39-28.7,107.87-28.7s75.42,9.99,107.89,28.71c.12.09.23.18.36.26.14.08.29.15.44.21,16.01,9.33,30.92,20.77,44.37,34.22,40.88,40.88,63.4,95.24,63.4,153.06,0,38.47-9.98,75.41-28.7,107.87-.1.12-.19.24-.27.38-.07.13-.12.26-.17.39-9.33,16.03-20.79,30.96-34.25,44.43Z"/>
      <g>
        <path class="cls-5" d="M369.81,232.45l85.1-85.11-67.36,110.45c-4.54-9.39-10.57-17.93-17.75-25.34Z"/>
        <path class="cls-1" d="M367.55,230.19c-7.42-7.18-15.95-13.2-25.34-17.75l110.45-67.36-85.11,85.11Z"/>
        <path class="cls-5" d="M232.45,230.19l-85.11-85.11,110.45,67.36c-9.39,4.54-17.92,10.57-25.34,17.75Z"/>
        <path class="cls-1" d="M230.19,232.45c-7.18,7.42-13.2,15.95-17.75,25.34l-67.36-110.45,85.11,85.11Z"/>
        <path class="cls-5" d="M202.83,298.4H53.98l154.85-32.13c-3.73,10.04-5.82,20.86-6,32.13Z"/>
        <path class="cls-1" d="M202.83,301.6c.18,11.25,2.27,22.05,5.98,32.07l-154.8-32.07h148.82Z"/>
        <path class="cls-5" d="M230.19,367.55l-85.11,85.11,67.36-110.45c4.54,9.39,10.57,17.92,17.75,25.34Z"/>
        <path class="cls-1" d="M232.45,369.81c7.42,7.18,15.95,13.2,25.34,17.75l-110.45,67.36,85.11-85.11Z"/>
        <path class="cls-5" d="M367.55,369.81l85.11,85.11-110.45-67.36c9.39-4.54,17.93-10.57,25.34-17.75Z"/>
        <path class="cls-1" d="M369.81,367.55c7.18-7.42,13.2-15.95,17.75-25.34l67.36,110.45-85.1-85.11Z"/>
        <path class="cls-5" d="M397.17,301.6h148.82l-154.8,32.07c3.71-10.02,5.8-20.82,5.98-32.07Z"/>
        <path class="cls-1" d="M397.17,298.4c-.18-11.28-2.28-22.09-6-32.13l154.85,32.13h-148.85Z"/>
        <path class="cls-5" d="M333.64,208.8c-10.01-3.71-20.8-5.79-32.05-5.97V55.66l32.05,153.14Z"/>
        <path class="cls-1" d="M298.4,55.66v147.17c-11.24.18-22.03,2.26-32.05,5.97l32.05-153.14Z"/>
        <path class="cls-5" d="M266.41,391.23c10,3.69,20.77,5.76,31.99,5.95v147.13l-31.99-153.08Z"/>
        <path class="cls-1" d="M301.6,544.31v-147.13c11.22-.18,21.99-2.25,31.99-5.95l-31.99,153.08Z"/>
      </g>
      <path class="cls-3" d="M300,600C134.58,600,0,465.42,0,300S134.58,0,300,0s300,134.58,300,300-134.58,300-300,300ZM300,9.59C139.87,9.59,9.59,139.87,9.59,300s130.28,290.41,290.41,290.41,290.41-130.28,290.41-290.41S460.13,9.59,300,9.59Z"/>
      <path class="cls-4" d="M571.54,296.35l-124.05-25.74c-4.16-20.9-12.66-40.25-24.52-57.07l49.06-80.45c.9-1.47.67-3.36-.55-4.58-1.22-1.22-3.11-1.44-4.58-.55l-80.45,49.06c-16.87-11.9-36.28-20.41-57.25-24.55l-25.56-122.13c-.36-1.73-1.89-2.97-3.65-2.97s-3.29,1.24-3.65,2.97l-25.56,122.13c-20.97,4.14-40.38,12.66-57.25,24.55l-80.45-49.06c-1.47-.9-3.36-.67-4.58.55s-1.44,3.11-.55,4.58l49.06,80.45c-11.86,16.82-20.36,36.17-24.52,57.07l-124.05,25.74c-1.73.36-2.97,1.89-2.97,3.65,0,1.77,1.24,3.29,2.97,3.65l124.04,25.7c4.15,20.91,12.66,40.27,24.52,57.1l-49.06,80.45c-.9,1.47-.67,3.36.55,4.58,1.22,1.22,3.11,1.44,4.58.55l80.45-49.06c16.88,11.9,36.31,20.42,57.29,24.56l25.52,122.12c.36,1.73,1.89,2.97,3.65,2.97s3.29-1.24,3.65-2.97l25.52-122.12c20.98-4.14,40.41-12.66,57.29-24.56l80.45,49.06c.6.37,1.27.55,1.94.55.96,0,1.92-.37,2.64-1.09,1.22-1.22,1.44-3.11.55-4.58l-49.06-80.45c11.87-16.83,20.37-36.19,24.52-57.1l124.04-25.7c1.73-.36,2.97-1.88,2.97-3.65,0-1.77-1.24-3.29-2.97-3.65ZM439.51,268.95l-44.68-9.27,23.88-39.16c9.73,14.5,16.89,30.86,20.8,48.43ZM387.58,257.24c-4.49-9.16-10.38-17.52-17.39-24.8l83.33-83.33-65.95,108.13ZM300,390.55c-49.93,0-90.55-40.62-90.55-90.55s40.62-90.55,90.55-90.55,90.55,40.62,90.55,90.55-40.62,90.55-90.55,90.55ZM450.89,146.47l-83.33,83.33c-7.28-7.01-15.64-12.89-24.8-17.39l108.13-65.94ZM379.48,181.28l-39.23,23.93-9.37-44.76c17.64,3.9,34.06,11.07,48.6,20.84ZM333.28,208.38c-9.84-3.58-20.41-5.62-31.42-5.83V58.23l31.42,150.15ZM298.13,58.23v144.31c-11.01.21-21.58,2.25-31.42,5.83l31.42-150.15ZM269.12,160.45l-9.37,44.76-39.23-23.93c14.54-9.77,30.96-16.94,48.6-20.84ZM257.24,212.42c-9.16,4.49-17.52,10.38-24.8,17.39l-83.33-83.33,108.13,65.94ZM146.47,149.11l83.33,83.33c-7.01,7.28-12.89,15.64-17.39,24.8l-65.95-108.13ZM181.28,220.52l23.88,39.16-44.68,9.27c3.91-17.57,11.06-33.94,20.8-48.43ZM208.41,266.63c-3.6,9.86-5.65,20.46-5.86,31.51H56.57l151.84-31.51ZM56.61,301.87h145.93c.21,11.02,2.25,21.6,5.84,31.45l-151.78-31.45ZM160.48,331.01l44.72,9.27-23.91,39.21c-9.74-14.51-16.9-30.88-20.81-48.47ZM212.42,342.76c4.49,9.16,10.38,17.52,17.38,24.8l-83.33,83.33,65.94-108.13ZM149.11,453.53l83.33-83.33c7.28,7.01,15.64,12.89,24.8,17.39l-108.13,65.94ZM220.52,418.72l39.28-23.96,9.36,44.8c-17.66-3.9-34.09-11.07-48.64-20.85ZM266.77,391.64c9.82,3.57,20.37,5.6,31.36,5.81v144.28l-31.36-150.09ZM301.86,541.73v-144.28c10.99-.21,21.54-2.24,31.36-5.81l-31.36,150.09ZM330.84,439.56l9.36-44.8,39.28,23.96c-14.55,9.77-30.99,16.95-48.64,20.85ZM342.76,387.58c9.16-4.49,17.52-10.38,24.8-17.39l83.33,83.33-108.13-65.94ZM453.53,450.89l-83.33-83.33c7.01-7.28,12.89-15.64,17.39-24.8l65.94,108.13ZM418.72,379.48l-23.91-39.21,44.72-9.27c-3.91,17.59-11.06,33.97-20.81,48.47ZM391.61,333.31c3.59-9.84,5.63-20.43,5.84-31.45h145.93l-151.77,31.45ZM397.45,298.13c-.21-11.04-2.26-21.65-5.86-31.51l151.84,31.51h-145.97Z"/>
      <path class="cls-2" d="M519.86,173.23h0c-.98-1.7-3.12-2.35-4.88-1.49l-196.7,95.48-.27-.16c-.31-.18-.61-.37-.94-.53-8.94-4.56-19.12-5.37-28.67-2.27-9.55,3.09-17.32,9.72-21.88,18.66-2.63,5.15-4,10.7-4.08,16.5l-181.14,122.39c-1.63,1.09-2.14,3.27-1.16,4.97.67,1.15,1.9,1.87,3.23,1.87.58,0,1.13-.13,1.65-.38l196.7-95.48c.09.05.18.1.26.16.31.18.62.37.94.53,5.35,2.73,11.08,4.12,17.02,4.12h.03c3.93,0,7.84-.62,11.62-1.85,9.55-3.09,17.32-9.72,21.88-18.66,2.63-5.15,4-10.7,4.08-16.5l181.14-122.38c1.63-1.09,2.14-3.27,1.16-4.97ZM326.82,313.68c-3.66,7.16-9.88,12.48-17.53,14.96-7.65,2.48-15.81,1.83-22.98-1.82-7.17-3.66-12.48-9.88-14.96-17.53-2.48-7.65-1.83-15.81,1.82-22.97,3.66-7.16,9.88-12.48,17.54-14.96,3.04-.98,6.17-1.48,9.32-1.48h.02c4.76,0,9.34,1.11,13.64,3.3,7.16,3.66,12.48,9.88,14.96,17.53,2.48,7.65,1.83,15.81-1.82,22.97Z"/>
    </g>
  </g>
</svg>